<svg width="52" height="67" viewBox="0 0 52 67" fill="none" xmlns="http://www.w3.org/2000/svg">
<path d="M29.2329 0.200513C28.1753 0.0679157 27.0952 0 25.9988 0C24.9025 0 23.8223 0.0679157 22.7647 0.200513C9.93187 1.79168 0 12.7358 0 26.002C0 27.2407 0.0873199 28.4567 0.252258 29.6469C0.536858 31.6876 1.06078 33.6539 1.79492 35.5167C1.82079 35.5814 1.84666 35.6461 1.87253 35.7075C2.76191 37.9229 3.94882 39.983 5.38475 41.8458L5.35564 41.9137L8.59296 45.7849L25.5881 66.0918L25.8274 66.3764C25.9147 66.4831 26.0797 66.4831 26.167 66.3764L26.4063 66.0918L43.1944 46.034C43.3206 45.882 43.3529 45.6717 43.2785 45.4874L43.2624 45.4454L43.0036 44.8244L40.0283 37.6965L39.9442 37.4927L39.1195 35.52L36.6713 29.6501L30.9922 16.0443C30.1514 14.0295 28.185 12.7197 26.002 12.7197C23.819 12.7197 21.8527 14.0295 21.0118 16.0443L15.3328 29.6501L12.8846 35.52L12.0599 37.496L11.9758 37.6997C11.3904 37.0173 10.8568 36.2864 10.3814 35.52C9.88336 34.7244 9.44676 33.89 9.07161 33.02C8.61237 31.9463 8.25015 30.8176 8.00436 29.6501C7.73593 28.4017 7.59363 27.1049 7.59363 25.7757C7.59363 17.9944 12.4221 11.3419 19.246 8.64471C20.9278 7.98172 22.7291 7.55482 24.6114 7.41576C25.0706 7.38018 25.5331 7.36401 26.002 7.36401C26.471 7.36401 26.9335 7.38341 27.3927 7.41576C29.2749 7.55482 31.0796 7.97849 32.758 8.64471C39.582 11.3387 44.4104 17.9912 44.4104 25.7757C44.4104 27.1049 44.2681 28.4017 43.9997 29.6501C43.7572 30.7885 43.4079 31.8848 42.9648 32.9327C42.9422 32.9877 42.9422 33.0491 42.9648 33.1009L43.9738 35.5167L46.1698 40.7753L46.4673 41.4901C46.532 41.6485 46.7455 41.6744 46.8489 41.5386C48.1814 39.7566 49.2874 37.7967 50.1315 35.7043C50.1574 35.6396 50.1801 35.5782 50.2059 35.5167C50.9368 33.6539 51.4608 31.6908 51.7486 29.6469C51.9168 28.4567 52.0008 27.2407 52.0008 26.002C52.0008 12.7391 42.0657 1.79492 29.2361 0.200513H29.2329ZM22.396 29.304L25.5105 20.4621C25.6722 19.9996 26.3254 19.9996 26.4872 20.4621L29.6016 29.304L29.6177 29.3493C29.6695 29.4949 29.5628 29.6436 29.4075 29.6436H22.5868C22.4348 29.6436 22.3281 29.4916 22.3766 29.3493L22.3928 29.304H22.396ZM17.8295 42.2727L20.1581 35.6623C20.1904 35.5749 20.2745 35.5135 20.3683 35.5135H31.6326C31.7264 35.5135 31.8105 35.5717 31.8428 35.6623L34.1713 42.2727L34.6306 43.5728C34.6565 43.6472 34.6403 43.7281 34.5918 43.7895L34.2587 44.1808L29.9961 49.1937C29.8635 49.3521 29.6048 49.2551 29.6048 49.0514V40.9564C29.6048 40.8336 29.5046 40.7365 29.3849 40.7365H22.6224C22.4995 40.7365 22.4025 40.8368 22.4025 40.9564V49.0514C22.4025 49.2583 22.147 49.3521 22.0112 49.1937L17.7487 44.1776L17.4155 43.7863C17.3638 43.7248 17.3509 43.644 17.3767 43.5696L17.836 42.2695L17.8295 42.2727Z" fill="url(#paint0_linear_2159_36271)"/>
<defs>
<linearGradient id="paint0_linear_2159_36271" x1="4.2981" y1="40.743" x2="52.7576" y2="21.8398" gradientUnits="userSpaceOnUse">
<stop stop-color="#0F4C81"/>
<stop offset="0.19" stop-color="#0D5488"/>
<stop offset="0.49" stop-color="#096B9B"/>
<stop offset="0.87" stop-color="#0291BA"/>
<stop offset="1" stop-color="#00A0C6"/>
</linearGradient>
</defs>
</svg>
