<?xml version="1.0" encoding="UTF-8"?>
<svg id="Layer_1" xmlns="http://www.w3.org/2000/svg" version="1.1" xmlns:xlink="http://www.w3.org/1999/xlink" viewBox="0 0 1000 233.64">
  <!-- Generator: Adobe Illustrator 29.6.1, SVG Export Plug-In . SVG Version: 2.1.1 Build 9)  -->
  <defs>
    <style>
      .st0 {
        fill: #fff;
      }

      .st1 {
        fill: url(#linear-gradient);
      }
    </style>
    <linearGradient id="linear-gradient" x1="55.26" y1="140.06" x2="205.1" y2="81.61" gradientUnits="userSpaceOnUse">
      <stop offset="0" stop-color="#0f4c81"/>
      <stop offset=".19" stop-color="#0d5488"/>
      <stop offset=".49" stop-color="#096b9b"/>
      <stop offset=".87" stop-color="#0291ba"/>
      <stop offset="1" stop-color="#00a0c6"/>
    </linearGradient>
  </defs>
  <path class="st1" d="M132.36,14.7c-3.27-.41-6.61-.62-10-.62s-6.73.21-10,.62c-39.68,4.92-70.39,38.76-70.39,79.78,0,3.83.27,7.59.78,11.27.88,6.31,2.5,12.39,4.77,18.15.08.2.16.4.24.59,2.75,6.85,6.42,13.22,10.86,18.98l-.09.21,10.01,11.97,52.55,62.79.74.88h0c.27.33.78.33,1.05,0h0s.74-.88.74-.88l51.91-62.02c.39-.47.49-1.12.26-1.69l-.05-.13-.8-1.92-9.2-22.04-.26-.63-2.55-6.1-7.57-18.15-17.56-42.07c-2.6-6.23-8.68-10.28-15.43-10.28h0c-6.75,0-12.83,4.05-15.43,10.28l-17.56,42.07-7.57,18.15-2.55,6.11-.26.63c-1.81-2.11-3.46-4.37-4.93-6.74-1.54-2.46-2.89-5.04-4.05-7.73-1.42-3.32-2.54-6.81-3.3-10.42-.83-3.86-1.27-7.87-1.27-11.98,0-24.06,14.93-44.63,36.03-52.97,5.2-2.05,10.77-3.37,16.59-3.8,1.42-.11,2.85-.16,4.3-.16s2.88.06,4.3.16c5.82.43,11.4,1.74,16.59,3.8,21.1,8.33,36.03,28.9,36.03,52.97,0,4.11-.44,8.12-1.27,11.98-.75,3.52-1.83,6.91-3.2,10.15-.07.17-.07.36,0,.52l3.12,7.47,6.79,16.26.92,2.21c.2.49.86.57,1.18.15,4.12-5.51,7.54-11.57,10.15-18.04.08-.2.15-.39.23-.58,2.26-5.76,3.88-11.83,4.77-18.15.52-3.68.78-7.44.78-11.27,0-41.01-30.72-74.85-70.39-79.78ZM111.22,104.69l9.63-27.34c.5-1.43,2.52-1.43,3.02,0l9.63,27.34.05.14c.16.45-.17.91-.65.91h-21.09c-.47,0-.8-.47-.65-.91l.05-.14ZM97.1,144.79l7.2-20.44c.1-.27.36-.46.65-.46h34.83c.29,0,.55.18.65.46l7.2,20.44,1.42,4.02c.08.23.03.48-.12.67l-1.03,1.21-13.18,15.5c-.41.49-1.21.19-1.21-.44v-25.03c0-.38-.31-.68-.68-.68h-20.91c-.38,0-.68.31-.68.68v25.03c0,.64-.79.93-1.21.44l-13.18-15.51-1.03-1.21c-.16-.19-.2-.44-.12-.67l1.42-4.02Z"/>
  <g>
    <path class="st0" d="M290.24,164.78l-5.83-17.91h-42.27l-5.83,17.91h-18.32l27.4-84.32c2.51-7.74,9.72-12.97,17.86-12.97h0c8.13,0,15.34,5.23,17.85,12.96l27.46,84.33h-18.32ZM246.89,132.42h32.77l-14.53-44.48c-.6-1.83-3.18-1.83-3.78,0l-14.47,44.48Z"/>
    <path class="st0" d="M371.9,100.46v-39.89h16.96v104.22h-16.22l-.75-12.08c-4.48,8.82-13.98,13.23-28.56,13.16-19.95.48-36.98-16.89-36.57-39.28-.41-22.32,16.62-39.76,36.57-39.35,13.3,0,23.88,5.02,28.56,13.23ZM347.88,151.35c6.65,0,12.35-2.37,17.03-7.12,4.68-4.68,6.99-10.58,6.99-17.71s-2.31-12.96-6.99-17.71c-4.68-4.68-10.31-7.06-17.03-7.06s-12.42,2.37-17.1,7.06c-4.68,4.68-6.99,10.65-6.99,17.78s2.37,13.03,7.06,17.71c4.68,4.68,10.31,7.06,17.03,7.06Z"/>
    <path class="st0" d="M415.37,88.38v38.2c0,16.22,5.29,24.77,17.98,24.77,6.78,0,12.01-2.24,15.74-6.78,3.73-4.55,5.56-10.52,5.56-17.98v-38.2h16.96v76.4h-16.22l-.75-12.08c-5.09,8.82-14.05,13.23-26.94,13.16-10.65,0-18.32-3.53-22.87-10.58-4.55-6.99-6.51-16.22-6.51-28.7v-38.2h17.03Z"/>
    <path class="st0" d="M538.55,164.78v-38.2c0-16.28-5.29-24.83-17.98-24.83-6.85,0-12.08,2.24-15.81,6.78-3.73,4.55-5.56,10.52-5.56,18.05v38.2h-16.96v-76.4h16.22l.75,12.08c5.09-8.82,14.04-13.23,26.94-13.23,10.65,0,18.32,3.6,22.86,10.58,4.55,7.06,6.51,16.28,6.51,28.77v38.2h-16.96Z"/>
    <path class="st0" d="M621.5,164.78v-38.2c0-16.28-5.29-24.83-17.98-24.83-6.85,0-12.08,2.24-15.81,6.78-3.73,4.55-5.56,10.52-5.56,18.05v38.2h-16.96v-76.4h16.22l.75,12.08c5.09-8.82,14.04-13.23,26.94-13.23,10.65,0,18.32,3.6,22.86,10.58,4.55,7.06,6.51,16.28,6.51,28.77v38.2h-16.96Z"/>
    <path class="st0" d="M649.09,74.41c-2.04-1.97-3.05-4.41-3.05-7.26s1.02-5.16,3.05-7.19c1.97-1.97,4.41-2.99,7.26-2.99s5.22,1.02,7.19,2.99c1.97,2.04,2.99,4.41,2.99,7.19s-1.02,5.22-2.99,7.26c-1.97,2.04-4.41,3.05-7.19,3.05s-5.29-1.02-7.26-3.05ZM647.8,88.38h17.03v76.4h-17.03v-76.4Z"/>
    <path class="st0" d="M742.76,67.48v14.45h-25.65v82.84h-18.12v-82.84h-25.58v-14.45h69.34Z"/>
    <path class="st0" d="M749.05,88.38h16.22l.81,10.04c3.32-4.27,7.12-7.26,11.33-8.82s9.84-2.31,16.89-2.31v14.45c-8.89,0-15.81,2.24-20.76,6.78-4.95,4.55-7.46,10.58-7.46,18.05v38.2h-17.03v-76.4Z"/>
    <path class="st0" d="M857.58,100.46l.75-12.08h16.22v76.4h-16.22l-.75-12.08c-4.48,8.82-13.98,13.23-28.56,13.16-19.95.48-36.91-16.89-36.5-39.28-.41-22.32,16.56-39.76,36.5-39.35,13.3,0,23.88,5.02,28.56,13.23ZM850.59,144.22c4.68-4.68,6.99-10.58,6.99-17.71s-2.31-12.96-6.99-17.71c-4.68-4.68-10.38-7.06-17.1-7.06s-12.28,2.37-16.96,7.06c-4.68,4.75-6.99,10.65-6.99,17.71s2.31,13.03,6.99,17.71c4.68,4.75,10.31,7.12,16.96,7.12s12.42-2.37,17.1-7.12Z"/>
    <path class="st0" d="M958.04,88.38l-31.48,32.57,31.48,43.83h-19.81l-23.07-32.02-11.53,11.94v20.08h-16.89V60.56h16.89v61.95l32.97-34.13h21.44Z"/>
  </g>
</svg>